<?xml version="1.0" encoding="UTF-8"?>
<svg version="1.1" xmlns="http://www.w3.org/2000/svg" width="267" height="133">
<path d="M0 0 C88.11 0 176.22 0 267 0 C267 43.89 267 87.78 267 133 C178.89 133 90.78 133 0 133 C0 89.11 0 45.22 0 0 Z " fill="#FDFDFD" transform="translate(0,0)"/>
<path d="M0 0 C0.99 0 1.98 0 3 0 C3 0.66 3 1.32 3 2 C3.80824219 1.95359375 4.61648437 1.9071875 5.44921875 1.859375 C14.08361475 1.56774281 14.08361475 1.56774281 18.3125 3.5625 C20 6 20 6 19.8125 9.75 C19.544375 10.8225 19.27625 11.895 19 13 C19.66 13 20.32 13 21 13 C21 12.34 21 11.68 21 11 C21.66 11 22.32 11 23 11 C22.9071875 12.36125 22.9071875 12.36125 22.8125 13.75 C22.68080295 16.9666314 22.68080295 16.9666314 24.46875 18.8125 C26.46831977 21.66902825 26.49973592 23.79514091 26.6875 27.25 C26.78611328 28.86648437 26.78611328 28.86648437 26.88671875 30.515625 C26.94279297 31.74539062 26.94279297 31.74539062 27 33 C27.17015625 32.46632812 27.3403125 31.93265625 27.515625 31.3828125 C28.89304631 27.14797466 30.37458331 22.99680405 32.0625 18.875 C33.65997576 14.95447742 34.91502472 11.08952222 36 7 C36.33 6.01 36.66 5.02 37 4 C40.63 4 44.26 4 48 4 C48 4.99 48 5.98 48 7 C48.66 7 49.32 7 50 7 C50.18175781 7.76183594 50.36351563 8.52367187 50.55078125 9.30859375 C52.33068583 16.61989411 54.19872889 23.82863532 57.1875 30.75 C58.1052535 33.29147123 58.15324355 35.31823783 58 38 C55.36 38 52.72 38 50 38 C49.01 35.36 48.02 32.72 47 30 C43.7 29.67 40.4 29.34 37 29 C36.855625 30.464375 36.71125 31.92875 36.5625 33.4375 C36.125 37.875 36.125 37.875 35 39 C33.48071962 39.07179964 31.95832518 39.08392007 30.4375 39.0625 C29.61121094 39.05347656 28.78492188 39.04445312 27.93359375 39.03515625 C27.29550781 39.02355469 26.65742187 39.01195312 26 39 C26 37.68 26 36.36 26 35 C25.34 35 24.68 35 24 35 C23.731875 35.78375 23.46375 36.5675 23.1875 37.375 C22 40 22 40 19 42 C3.12615396 43.5643313 3.12615396 43.5643313 -2.4375 39.875 C-6.23571566 35.61358731 -7 32.64170734 -7 27 C-9.31 27 -11.62 27 -14 27 C-14 24.36 -14 21.72 -14 19 C-13.34 19 -12.68 19 -12 19 C-11.896875 17.906875 -11.79375 16.81375 -11.6875 15.6875 C-11 12 -11 12 -9.5625 10.0625 C-8 9 -8 9 -6 9 C-6 8.34 -6 7.68 -6 7 C-5.195625 6.54625 -4.39125 6.0925 -3.5625 5.625 C-0.84763807 4.26579005 -0.84763807 4.26579005 -0.1875 1.8125 C-0.125625 1.214375 -0.06375 0.61625 0 0 Z " fill="#977AEB" transform="translate(39,43)"/>
<path d="M0 0 C3.875 0.875 3.875 0.875 5 2 C5.07244053 4.01964199 5.08377188 6.04167124 5.0625 8.0625 C5.05347656 9.16722656 5.04445312 10.27195312 5.03515625 11.41015625 C5.02355469 12.26480469 5.01195312 13.11945312 5 14 C5.66 14.33 6.32 14.66 7 15 C7.268125 14.38125 7.53625 13.7625 7.8125 13.125 C9 11 9 11 12 9 C14.91796875 8.8046875 14.91796875 8.8046875 18.1875 8.875 C19.81751953 8.90207031 19.81751953 8.90207031 21.48046875 8.9296875 C22.72763672 8.96449219 22.72763672 8.96449219 24 9 C24 9.66 24 10.32 24 11 C24.99 10.34 25.98 9.68 27 9 C27.99 9 28.98 9 30 9 C30 7.35 30 5.7 30 4 C34.455 3.505 34.455 3.505 39 3 C39 5.31 39 7.62 39 10 C39.804375 9.979375 40.60875 9.95875 41.4375 9.9375 C44 10 44 10 45 11 C45.04063832 12.66617115 45.042721 14.33388095 45 16 C43.02 16 41.04 16 39 16 C39 19.96 39 23.92 39 28 C40.98 28.33 42.96 28.66 45 29 C45.04254356 30.99954746 45.04080783 33.00041636 45 35 C44 36 44 36 41.49609375 36.09765625 C40.48675781 36.08605469 39.47742188 36.07445312 38.4375 36.0625 C37.42558594 36.05347656 36.41367188 36.04445312 35.37109375 36.03515625 C34.19740234 36.01775391 34.19740234 36.01775391 33 36 C33 35.34 33 34.68 33 34 C32.34 34 31.68 34 31 34 C29.7960663 30.24600202 29.90122383 26.66782588 29.9375 22.75 C29.94652344 21.48671875 29.95554688 20.2234375 29.96484375 18.921875 C29.97644531 17.95765625 29.98804688 16.9934375 30 16 C29.00419922 16.12568359 29.00419922 16.12568359 27.98828125 16.25390625 C19.21792619 17.26537786 19.21792619 17.26537786 15 16 C17.37369268 18.62355506 19.96613477 20.21079743 23 22 C25 24 25 24 25.3125 26.75 C24.9365627 30.6597479 24.25797249 32.76800017 22 36 C19.01526372 36.63321903 16.797088 36.88542651 13.8125 36.875 C13.06291016 36.895625 12.31332031 36.91625 11.54101562 36.9375 C9.69449213 36.98454518 7.84711781 36.99574887 6 37 C5.690625 38.093125 5.38125 39.18625 5.0625 40.3125 C4.41662103 42.55407994 3.7376883 44.7869351 3 47 C1.68 47 0.36 47 -1 47 C-1 42.71 -1 38.42 -1 34 C-1.66 34 -2.32 34 -3 34 C-3.22428282 26.05042008 -2.95403042 18.72888819 -1 11 C-1.66 11 -2.32 11 -3 11 C-3.75 8.3125 -3.75 8.3125 -4 5 C-2.0625 2.125 -2.0625 2.125 0 0 Z " fill="#D2CAEB" transform="translate(149,46)"/>
<path d="M0 0 C3.63 0 7.26 0 11 0 C11 0.99 11 1.98 11 3 C11.66 3 12.32 3 13 3 C13.18175781 3.76183594 13.36351563 4.52367187 13.55078125 5.30859375 C15.33068583 12.61989411 17.19872889 19.82863532 20.1875 26.75 C21.1052535 29.29147123 21.15324355 31.31823783 21 34 C18.36 34 15.72 34 13 34 C12.01 31.36 11.02 28.72 10 26 C6.7 25.67 3.4 25.34 0 25 C-0.33 27.97 -0.66 30.94 -1 34 C-3.97 34 -6.94 34 -10 34 C-8.79736731 26.78420385 -6.78608399 20.24336431 -4.21875 13.39453125 C-2.98650816 9.96242176 -1.97593083 6.51250968 -1 3 C-0.67 2.01 -0.34 1.02 0 0 Z " fill="#1C2232" transform="translate(76,47)"/>
<path d="M0 0 C3.63 0 7.26 0 11 0 C11.66 4.62 12.32 9.24 13 14 C13.66 14 14.32 14 15 14 C15.66 9.71 16.32 5.42 17 1 C19.64 1 22.28 1 25 1 C24.2764109 12.95169581 20.61704413 22.07443381 14 32 C13.34 32 12.68 32 12 32 C11.79375 32.639375 11.5875 33.27875 11.375 33.9375 C10 36 10 36 6.875 36.75 C5.92625 36.8325 4.9775 36.915 4 37 C3.67 35.02 3.34 33.04 3 31 C4.2375 30.5359375 4.2375 30.5359375 5.5 30.0625 C8.18064245 28.30620364 8.18064245 28.30620364 8.3671875 25.90234375 C8.37888773 22.30452444 8.1440562 19.43216859 7 16 C6.34 16 5.68 16 5 16 C4.67 13.03 4.34 10.06 4 7 C3.34 7 2.68 7 2 7 C0.5393715 4.35261084 0 3.10551666 0 0 Z " fill="#2E3341" transform="translate(210,56)"/>
<path d="M0 0 C0.99 0 1.98 0 3 0 C3 0.66 3 1.32 3 2 C3.80824219 1.95359375 4.61648437 1.9071875 5.44921875 1.859375 C14.2864494 1.56089194 14.2864494 1.56089194 18.25 4 C20 6 20 6 19.9375 8.3125 C19 11 19 11 16 12.6875 C13.18421186 13.72824305 10.37952548 14.36004661 7.4375 14.9375 C1.40042366 16.20630926 -2.26042307 18.97327898 -6.0625 23.75 C-8.64520242 26.94600906 -8.64520242 26.94600906 -11.875 27.4375 C-12.57625 27.293125 -13.2775 27.14875 -14 27 C-14 24.36 -14 21.72 -14 19 C-13.34 19 -12.68 19 -12 19 C-11.896875 17.906875 -11.79375 16.81375 -11.6875 15.6875 C-11 12 -11 12 -9.5625 10.0625 C-8 9 -8 9 -6 9 C-6 8.34 -6 7.68 -6 7 C-5.195625 6.54625 -4.39125 6.0925 -3.5625 5.625 C-0.84763807 4.26579005 -0.84763807 4.26579005 -0.1875 1.8125 C-0.125625 1.214375 -0.06375 0.61625 0 0 Z " fill="#5F2FE4" transform="translate(39,43)"/>
<path d="M0 0 C0 2.31 0 4.62 0 7 C0.804375 6.979375 1.60875 6.95875 2.4375 6.9375 C5 7 5 7 6 8 C6.04063832 9.66617115 6.042721 11.33388095 6 13 C4.02 13 2.04 13 0 13 C0 16.96 0 20.92 0 25 C1.98 25.33 3.96 25.66 6 26 C6.04254356 27.99954746 6.04080783 30.00041636 6 32 C5 33 5 33 2.49609375 33.09765625 C1.48675781 33.08605469 0.47742188 33.07445312 -0.5625 33.0625 C-1.57441406 33.05347656 -2.58632812 33.04445312 -3.62890625 33.03515625 C-4.80259766 33.01775391 -4.80259766 33.01775391 -6 33 C-6 32.34 -6 31.68 -6 31 C-6.66 31 -7.32 31 -8 31 C-9.47152384 26.13170864 -9.42782575 21.06394989 -9.71875 16.01953125 C-9.66446405 13.12270907 -9.66446405 13.12270907 -11 12 C-11.04063832 10.33382885 -11.042721 8.66611905 -11 7 C-10.01 7 -9.02 7 -8 7 C-8 5.35 -8 3.7 -8 2 C-4.91190305 0.23537317 -3.76687864 0 0 0 Z " fill="#1E2333" transform="translate(188,49)"/>
<path d="M0 0 C0 2.31 0 4.62 0 7 C1.65 7 3.3 7 5 7 C5 8.98 5 10.96 5 13 C3.35 13 1.7 13 0 13 C0 17.29 0 21.58 0 26 C1.65 26 3.3 26 5 26 C5 28.31 5 30.62 5 33 C-3.1627907 33.62790698 -3.1627907 33.62790698 -6.5 31.125 C-9.2598827 27.21516617 -9.10600302 24.66033211 -9.0625 19.875 C-9.05347656 18.59367187 -9.04445313 17.31234375 -9.03515625 15.9921875 C-9.02355469 15.00476563 -9.01195313 14.01734375 -9 13 C-9.99 13 -10.98 13 -12 13 C-12 10.69 -12 8.38 -12 6 C-11.01 6 -10.02 6 -9 6 C-9 4.35 -9 2.7 -9 1 C-5.94152152 0.45627049 -3.11227195 0 0 0 Z " fill="#252B3A" transform="translate(132,49)"/>
<path d="M0 0 C2.64 0 5.28 0 8 0 C8 12.54 8 25.08 8 38 C5.36 38 2.72 38 0 38 C0 25.46 0 12.92 0 0 Z " fill="#0A0F21" transform="translate(198,44)"/>
<path d="M0 0 C1.18916016 0.01353516 1.18916016 0.01353516 2.40234375 0.02734375 C4.35169281 0.05082988 6.30088575 0.08669863 8.25 0.125 C8.58 0.785 8.91 1.445 9.25 2.125 C8.610625 2.41375 7.97125 2.7025 7.3125 3 C5.09793921 3.95323451 5.09793921 3.95323451 4.25 6.125 C6.725 6.62 6.725 6.62 9.25 7.125 C9.58 5.805 9.91 4.485 10.25 3.125 C10.58 3.455 10.91 3.785 11.25 4.125 C11.1640625 6.15625 11.1640625 6.15625 10.875 8.625 C10.78476562 9.4396875 10.69453125 10.254375 10.6015625 11.09375 C10.25 13.125 10.25 13.125 9.25 14.125 C6.1343708 14.42967105 3.00370638 14.40329403 -0.125 14.4375 C-1.0015625 14.46650391 -1.878125 14.49550781 -2.78125 14.52539062 C-9.19694208 14.58915515 -9.19694208 14.58915515 -11.83984375 12.37109375 C-13.29211852 8.78715387 -12.94213801 5.96776015 -12.75 2.125 C-8.77389214 -0.58986934 -4.61098023 -0.09940753 0 0 Z " fill="#D6D0E8" transform="translate(48.75,65.875)"/>
<path d="M0 0 C1.08667969 0.02707031 2.17335937 0.05414063 3.29296875 0.08203125 C4.54013672 0.13423828 4.54013672 0.13423828 5.8125 0.1875 C5.8125 1.5075 5.8125 2.8275 5.8125 4.1875 C3.1725 4.1875 0.5325 4.1875 -2.1875 4.1875 C-2.5175 5.5075 -2.8475 6.8275 -3.1875 8.1875 C-2.115 8.27 -1.0425 8.3525 0.0625 8.4375 C4.1441667 9.25383334 5.50425187 9.77129277 7.8125 13.1875 C8.55773902 17.07930376 8.12478623 18.67445834 6.0625 22.0625 C1.22183641 25.22754927 -3.54687227 24.79308887 -9.1875 24.1875 C-9.5175 23.8575 -9.8475 23.5275 -10.1875 23.1875 C-10.1875 21.5375 -10.1875 19.8875 -10.1875 18.1875 C-6.8875 18.5175 -3.5875 18.8475 -0.1875 19.1875 C-0.5175 17.8675 -0.8475 16.5475 -1.1875 15.1875 C-1.950625 15.084375 -2.71375 14.98125 -3.5 14.875 C-7.5647242 13.83518683 -7.5647242 13.83518683 -9.1875 11.1875 C-9.72510082 7.65995486 -10.05782377 4.51840749 -8.05078125 1.44921875 C-5.34551652 -0.38264814 -3.22673027 -0.10408807 0 0 Z " fill="#1F2433" transform="translate(166.1875,56.8125)"/>
<path d="M0 0 C0.99 0.33 1.98 0.66 3 1 C3 1.66 3 2.32 3 3 C5.31 3.66 7.62 4.32 10 5 C10.33 6.32 10.66 7.64 11 9 C4.375 9.125 4.375 9.125 1 8 C1.33 9.65 1.66 11.3 2 13 C6.62 13 11.24 13 16 13 C16 13.66 16 14.32 16 15 C8.08 15.495 8.08 15.495 0 16 C-0.66 18.31 -1.32 20.62 -2 23 C-2.33 23.99 -2.66 24.98 -3 26 C-4.32 26 -5.64 26 -7 26 C-7 21.71 -7 17.42 -7 13 C-7.66 13 -8.32 13 -9 13 C-9 9.7 -9 6.4 -9 3 C-6.03 3 -3.06 3 0 3 C0 2.01 0 1.02 0 0 Z " fill="#E8E6F0" transform="translate(155,67)"/>
<path d="M0 0 C1.98 0 3.96 0 6 0 C6 1.32 6 2.64 6 4 C6.7425 3.34 7.485 2.68 8.25 2 C11 0 11 0 15 0 C15 2.31 15 4.62 15 7 C13.02 7.33 11.04 7.66 9 8 C8.67 13.94 8.34 19.88 8 26 C5.36 26 2.72 26 0 26 C0 17.42 0 8.84 0 0 Z " fill="#0D1425" transform="translate(102,56)"/>
<path d="M0 0 C3.63 0 7.26 0 11 0 C11 0.99 11 1.98 11 3 C11.66 3 12.32 3 13 3 C15.42857143 9.28571429 15.42857143 9.28571429 14 13 C14 12.34 14 11.68 14 11 C12.68 11.33 11.36 11.66 10 12 C9.67 14.64 9.34 17.28 9 20 C6.36 20 3.72 20 1 20 C1 17.03 1 14.06 1 11 C0.01 10.67 -0.98 10.34 -2 10 C-2.19546065 5.69986566 -1.9955516 3.99110319 0 0 Z " fill="#323745" transform="translate(76,47)"/>
<path d="M0 0 C-0.33 1.65 -0.66 3.3 -1 5 C-2.98 5 -4.96 5 -7 5 C-7 5.66 -7 6.32 -7 7 C-8.32 7.33 -9.64 7.66 -11 8 C-10.87625 9.258125 -10.7525 10.51625 -10.625 11.8125 C-10.55539063 12.52019531 -10.48578125 13.22789063 -10.4140625 13.95703125 C-10.07334609 16.29988142 -10.07334609 16.29988142 -8 19 C-6.03946845 19.44711543 -6.03946845 19.44711543 -3.7890625 19.36328125 C-2.53996094 19.36231445 -2.53996094 19.36231445 -1.265625 19.36132812 C-0.39421875 19.34521484 0.4771875 19.32910156 1.375 19.3125 C2.23867188 19.31572266 3.10234375 19.31894531 3.9921875 19.32226562 C8.27945956 19.28587674 11.20931018 19.16218881 15 17 C15.25 19.3125 15.25 19.3125 15 22 C12.48731973 24.74885909 10.87801883 25.01480055 7.13671875 25.46875 C5.65398872 25.50229743 4.17056251 25.51180579 2.6875 25.5 C1.5428125 25.49685791 1.5428125 25.49685791 0.375 25.49365234 C-5.52038102 25.32749595 -8.82884432 24.37971347 -13 20 C-14.26237731 17.47524538 -14.09856404 15.68799534 -14.0625 12.875 C-14.05347656 11.96492188 -14.04445312 11.05484375 -14.03515625 10.1171875 C-14.02355469 9.41851562 -14.01195312 8.71984375 -14 8 C-13.34 8 -12.68 8 -12 8 C-11.67 7.01 -11.34 6.02 -11 5 C-10.34 5 -9.68 5 -9 5 C-9 4.34 -9 3.68 -9 3 C-3.375 0 -3.375 0 0 0 Z " fill="#6D3EE6" transform="translate(47,60)"/>
<path d="M0 0 C0.99 0.66 1.98 1.32 3 2 C3.22265625 4.49609375 3.22265625 4.49609375 3.0625 7.4375 C2.77626579 12.00204358 2.77626579 12.00204358 5 16 C3.68 16 2.36 16 1 16 C1.020625 17.258125 1.04125 18.51625 1.0625 19.8125 C1.10886083 22.64051087 0.91692961 24.24921116 0 27 C-2.97 27 -5.94 27 -9 27 C-7.59995903 18.59975419 -4.99841965 10.94237877 -2 3 C-1.34 3 -0.68 3 0 3 C0 2.01 0 1.02 0 0 Z " fill="#202535" transform="translate(75,54)"/>
<path d="M0 0 C5.61 0 11.22 0 17 0 C17.33 0.66 17.66 1.32 18 2 C17.360625 2.28875 16.72125 2.5775 16.0625 2.875 C13.84793921 3.82823451 13.84793921 3.82823451 13 6 C14.65 6.33 16.3 6.66 18 7 C18.33 5.68 18.66 4.36 19 3 C20 4 20 4 20.125 6.9375 C20 10 20 10 19 12 C16.69 12 14.38 12 12 12 C12 11.01 12 10.02 12 9 C10.68 9.33 9.36 9.66 8 10 C8 9.34 8 8.68 8 8 C7.01 8 6.02 8 5 8 C5 6.35 5 4.7 5 3 C2.03 2.505 2.03 2.505 -1 2 C-0.67 1.34 -0.34 0.68 0 0 Z " fill="#F3F1F9" transform="translate(40,66)"/>
<path d="M0 0 C2.64 0 5.28 0 8 0 C8 12.54 8 25.08 8 38 C5.36 38 2.72 38 0 38 C0 25.46 0 12.92 0 0 Z M2 2 C2 13.22 2 24.44 2 36 C3.65 36 5.3 36 7 36 C7 24.78 7 13.56 7 2 C5.35 2 3.7 2 2 2 Z " fill="#535561" transform="translate(198,44)"/>
<path d="M0 0 C2.64 0 5.28 0 8 0 C7.60146354 6.58272295 6.86760841 12.97665028 4 19 C3.34 19.33 2.68 19.66 2 20 C2 18.35 2 16.7 2 15 C0.02 15.33 -1.96 15.66 -4 16 C-4.33 14.35 -4.66 12.7 -5 11 C-4.67 11.66 -4.34 12.32 -4 13 C-3.34 13 -2.68 13 -2 13 C-1.34 8.71 -0.68 4.42 0 0 Z " fill="#424754" transform="translate(227,57)"/>
<path d="M0 0 C1.98 0 3.96 0 6 0 C6.02726927 2.35424675 6.04696719 4.70816962 6.0625 7.0625 C6.07410156 8.37347656 6.08570313 9.68445313 6.09765625 11.03515625 C6.00452335 14.8163519 5.61448726 18.27920707 5 22 C3.68 22 2.36 22 1 22 C0.67 14.74 0.34 7.48 0 0 Z " fill="#815BE8" transform="translate(147,71)"/>
<path d="M0 0 C2.71030238 2.23965107 3.89073206 3.43953725 4.57421875 6.9453125 C4.61160156 7.99460937 4.64898437 9.04390625 4.6875 10.125 C4.7421091 14.21629113 4.7421091 14.21629113 6 18 C5.67 18.99 5.34 19.98 5 21 C7.64 21 10.28 21 13 21 C13 21.33 13 21.66 13 22 C10.03 22 7.06 22 4 22 C4 20.68 4 19.36 4 18 C3.34 18 2.68 18 2 18 C1.67 18.66 1.34 19.32 1 20 C1 19.01 1 18.02 1 17 C0.01 17.33 -0.98 17.66 -2 18 C-2 15.36 -2 12.72 -2 10 C-2.33 10.99 -2.66 11.98 -3 13 C-4.65 12.67 -6.3 12.34 -8 12 C-7.25 10.0625 -7.25 10.0625 -6 8 C-4 7.1875 -4 7.1875 -2 7 C-1.34 7.33 -0.68 7.66 0 8 C0 8.66 0 9.32 0 10 C0.66 10 1.32 10 2 10 C1.34 6.7 0.68 3.4 0 0 Z " fill="#9378DF" transform="translate(61,60)"/>
<path d="M0 0 C0.66 0.33 1.32 0.66 2 1 C1.67 2.65 1.34 4.3 1 6 C0.01 6 -0.98 6 -2 6 C-1.67 7.98 -1.34 9.96 -1 12 C-10.41002278 13.33257403 -10.41002278 13.33257403 -15 12 C-14.67 12.99 -14.34 13.98 -14 15 C-14.66 15 -15.32 15 -16 15 C-15.67 13.35 -15.34 11.7 -15 10 C-12.36 10.33 -9.72 10.66 -7 11 C-7 9.68 -7 8.36 -7 7 C-8.95901454 7.11382653 -10.9172338 7.24141125 -12.875 7.375 C-14.51082031 7.47941406 -14.51082031 7.47941406 -16.1796875 7.5859375 C-19.13046474 7.73253491 -19.13046474 7.73253491 -21 10 C-21.40047444 12.32275177 -21.7397104 14.65739357 -22 17 C-22.33 17 -22.66 17 -23 17 C-23.59574468 9.85106383 -23.59574468 9.85106383 -21.25 6.5 C-16.27152376 4.20224174 -11.39530594 4.69022167 -6 5 C-6 5.66 -6 6.32 -6 7 C-5.01 6.34 -4.02 5.68 -3 5 C-2.01 5 -1.02 5 0 5 C0 3.35 0 1.7 0 0 Z " fill="#9A9CA2" transform="translate(179,50)"/>
<path d="M0 0 C3.40859481 3.89553693 3.57920293 8.03459453 4 13 C3.34 13 2.68 13 2 13 C2 12.34 2 11.68 2 11 C0.68 10.67 -0.64 10.34 -2 10 C-2 9.34 -2 8.68 -2 8 C-3.98 8 -5.96 8 -8 8 C-8.66 6.02 -9.32 4.04 -10 2 C-6.56062459 0.4277141 -3.78596147 -0.69741396 0 0 Z " fill="#5B29E3" transform="translate(59,57)"/>
<path d="M0 0 C2.64 0 5.28 0 8 0 C8.36644578 1.55966592 8.71760862 3.12292651 9.0625 4.6875 C9.25972656 5.55761719 9.45695313 6.42773438 9.66015625 7.32421875 C10.02509476 10.1975852 9.84691238 12.2366459 9 15 C8.01 15.495 8.01 15.495 7 16 C7 15.34 7 14.68 7 14 C6.34 14 5.68 14 5 14 C1.57142857 5.57142857 1.57142857 5.57142857 2 1 C1.34 0.67 0.68 0.34 0 0 Z " fill="#111526" transform="translate(211,57)"/>
<path d="M0 0 C3.875 0.875 3.875 0.875 5 2 C5.1328125 3.8125 5.1328125 3.8125 5.125 6 C5.12757813 6.721875 5.13015625 7.44375 5.1328125 8.1875 C5 10 5 10 4 11 C1.66702567 11.04092937 -0.66705225 11.04241723 -3 11 C-3.75 8.3125 -3.75 8.3125 -4 5 C-2.0625 2.125 -2.0625 2.125 0 0 Z " fill="#6738E5" transform="translate(149,46)"/>
<path d="M0 0 C1.98 0 3.96 0 6 0 C6 0.33 6 0.66 6 1 C4.35 1 2.7 1 1 1 C1 8.59 1 16.18 1 24 C2.65 24 4.3 24 6 24 C6 19.38 6 14.76 6 10 C6.66 10 7.32 10 8 10 C8 15.28 8 20.56 8 26 C5.36 26 2.72 26 0 26 C0 17.42 0 8.84 0 0 Z " fill="#505560" transform="translate(102,56)"/>
<path d="M0 0 C0.66 0 1.32 0 2 0 C2.03738281 1.13179687 2.07476562 2.26359375 2.11328125 3.4296875 C2.17893082 4.91149205 2.24537851 6.39326139 2.3125 7.875 C2.33505859 8.62136719 2.35761719 9.36773437 2.38085938 10.13671875 C2.47811945 12.099604 2.73042294 14.05328322 3 16 C6.44450737 18.29633824 8.93812283 18.54016485 13 19 C13 17.68 13 16.36 13 15 C12.01 15 11.02 15 10 15 C9.67 14.01 9.34 13.02 9 12 C11.97 12.495 11.97 12.495 15 13 C15.04254356 14.99954746 15.04080783 17.00041636 15 19 C14 20 14 20 11.49609375 20.09765625 C10.48675781 20.08605469 9.47742188 20.07445313 8.4375 20.0625 C7.42558594 20.05347656 6.41367188 20.04445313 5.37109375 20.03515625 C4.58863281 20.02355469 3.80617187 20.01195313 3 20 C3 19.34 3 18.68 3 18 C2.34 18 1.68 18 1 18 C-0.2039337 14.24600202 -0.09877617 10.66782588 -0.0625 6.75 C-0.05347656 5.48671875 -0.04445312 4.2234375 -0.03515625 2.921875 C-0.02355469 1.95765625 -0.01195312 0.9934375 0 0 Z " fill="#9A9CA3" transform="translate(179,62)"/>
<path d="M0 0 C0.66 0 1.32 0 2 0 C2.66 2.97 3.32 5.94 4 9 C8.62 9 13.24 9 18 9 C18 9.66 18 10.32 18 11 C10.08 11.495 10.08 11.495 2 12 C1.01 15.465 1.01 15.465 0 19 C-1.35862973 15.09519751 -0.89469712 11.2898224 -0.5625 7.25 C-0.48418945 6.20392578 -0.48418945 6.20392578 -0.40429688 5.13671875 C-0.27525928 3.42403797 -0.13840386 1.71194934 0 0 Z " fill="#BBB6CE" transform="translate(153,71)"/>
<path d="M0 0 C0 2.31 0 4.62 0 7 C-2.31 7 -4.62 7 -7 7 C-7 6.34 -7 5.68 -7 5 C-7.99 5 -8.98 5 -10 5 C-9.67 3.68 -9.34 2.36 -9 1 C-9 1.99 -9 2.98 -9 4 C-8.2575 3.34 -7.515 2.68 -6.75 2 C-4 0 -4 0 0 0 Z " fill="#202434" transform="translate(117,56)"/>
<path d="M0 0 C0.33 0.99 0.66 1.98 1 3 C1.66 3 2.32 3 3 3 C3 5.97 3 8.94 3 12 C1.35 12 -0.3 12 -2 12 C-2 9.03 -2 6.06 -2 3 C-1.34 3 -0.68 3 0 3 C0 2.01 0 1.02 0 0 Z " fill="#D1D2D5" transform="translate(81,54)"/>
<path d="M0 0 C1.98 0 3.96 0 6 0 C5.125 4.75 5.125 4.75 4 7 C3.34 7 2.68 7 2 7 C2 8.65 2 10.3 2 12 C0.4375 10.5 0.4375 10.5 -1 8 C-0.96823234 5.22562457 -0.50364148 2.74713533 0 0 Z " fill="#0B1121" transform="translate(229,57)"/>
<path d="M0 0 C1.65 0 3.3 0 5 0 C5 2.64 5 5.28 5 8 C3.02 8 1.04 8 -1 8 C-1.125 2.25 -1.125 2.25 0 0 Z " fill="#BAA8F1" transform="translate(148,57)"/>
<path d="M0 0 C0.33 1.65 0.66 3.3 1 5 C-0.65614657 5.38218767 -2.32457024 5.71395102 -4 6 C-4.33 5.67 -4.66 5.34 -5 5 C-5.66 5.99 -6.32 6.98 -7 8 C-7 5.36 -7 2.72 -7 0 C-4.3333581 -1.33332095 -2.83319697 -0.67102033 0 0 Z " fill="#B5B2C6" transform="translate(43,68)"/>
<path d="M0 0 C0 2.31 0 4.62 0 7 C-0.66 7 -1.32 7 -2 7 C-2 5.35 -2 3.7 -2 2 C-3.98 2 -5.96 2 -8 2 C-8 3.65 -8 5.3 -8 7 C-8.99 7.33 -9.98 7.66 -11 8 C-11 9.32 -11 10.64 -11 12 C-10.34 12.33 -9.68 12.66 -9 13 C-9.99 13 -10.98 13 -12 13 C-12 10.69 -12 8.38 -12 6 C-11.01 6 -10.02 6 -9 6 C-9 4.35 -9 2.7 -9 1 C-5.94152152 0.45627049 -3.11227195 0 0 0 Z " fill="#6F727B" transform="translate(132,49)"/>
<path d="M0 0 C1.22589844 0.01353516 1.22589844 0.01353516 2.4765625 0.02734375 C3.41628906 0.04474609 3.41628906 0.04474609 4.375 0.0625 C4.045 2.0425 3.715 4.0225 3.375 6.0625 C3.045 4.7425 2.715 3.4225 2.375 2.0625 C-0.265 2.0625 -2.905 2.0625 -5.625 2.0625 C-5.58375 3.155625 -5.5425 4.24875 -5.5 5.375 C-5.625 9.0625 -5.625 9.0625 -7.625 12.0625 C-7.51148483 10.24924449 -7.38387039 8.43686643 -7.25 6.625 C-7.18039063 5.61566406 -7.11078125 4.60632812 -7.0390625 3.56640625 C-6.90242187 2.74011719 -6.76578125 1.91382813 -6.625 1.0625 C-4.21954362 -0.14022819 -2.67503047 -0.03821472 0 0 Z " fill="#AFB1B5" transform="translate(232.625,54.9375)"/>
<path d="M0 0 C6.27 0 12.54 0 19 0 C17.68 0.33 16.36 0.66 15 1 C15 1.66 15 2.32 15 3 C11.7 3 8.4 3 5 3 C5 2.67 5 2.34 5 2 C3.35 1.67 1.7 1.34 0 1 C0 0.67 0 0.34 0 0 Z " fill="#531CE2" transform="translate(39,81)"/>
<path d="M0 0 C0 2.97 0 5.94 0 9 C-0.99 9.495 -0.99 9.495 -2 10 C-2 7.36 -2 4.72 -2 2 C-2.33 2.99 -2.66 3.98 -3 5 C-4.65 4.67 -6.3 4.34 -8 4 C-7.1875 2.0625 -7.1875 2.0625 -6 0 C-3 -1 -3 -1 0 0 Z " fill="#BBB6D3" transform="translate(61,68)"/>
<path d="M0 0 C1.98 0 3.96 0 6 0 C6 0.66 6 1.32 6 2 C4.68 2 3.36 2 2 2 C2 5.3 2 8.6 2 12 C1.34 12 0.68 12 0 12 C0 8.04 0 4.08 0 0 Z " fill="#E0E0E2" transform="translate(188,62)"/>
<path d="M0 0 C2.97 0.495 2.97 0.495 6 1 C6.04254356 2.99954746 6.04080783 5.00041636 6 7 C5 8 5 8 2.93359375 8.09765625 C2.10988281 8.08605469 1.28617188 8.07445313 0.4375 8.0625 C-0.38878906 8.05347656 -1.21507812 8.04445313 -2.06640625 8.03515625 C-2.70449219 8.02355469 -3.34257812 8.01195313 -4 8 C-4.33 7.34 -4.66 6.68 -5 6 C-2.03 6.33 0.94 6.66 4 7 C4 5.68 4 4.36 4 3 C3.01 3 2.02 3 1 3 C0.67 2.01 0.34 1.02 0 0 Z " fill="#72747C" transform="translate(188,74)"/>
<path d="M0 0 C1.32 0 2.64 0 4 0 C4 1.98 4 3.96 4 6 C3.34 6 2.68 6 2 6 C1.67 7.32 1.34 8.64 1 10 C0.67 10 0.34 10 0 10 C0 6.7 0 3.4 0 0 Z " fill="#5823E3" transform="translate(149,72)"/>
<path d="M0 0 C1 2 1 2 0.51171875 4.12890625 C0.23972656 4.93199219 -0.03226562 5.73507813 -0.3125 6.5625 C-0.57675781 7.36816406 -0.84101562 8.17382812 -1.11328125 9.00390625 C-2 11 -2 11 -4 12 C-4 8.7 -4 5.4 -4 2 C-3.67 2.66 -3.34 3.32 -3 4 C-2.34 4 -1.68 4 -1 4 C-0.67 2.68 -0.34 1.36 0 0 Z " fill="#E3E2E9" transform="translate(69,65)"/>
<path d="M0 0 C2.64 0 5.28 0 8 0 C8 1.32 8 2.64 8 4 C4.7 4 1.4 4 -2 4 C-1.01 3.34 -0.02 2.68 1 2 C0.67 1.34 0.34 0.68 0 0 Z " fill="#05081C" transform="translate(78,67)"/>
<path d="M0 0 C2.64 0 5.28 0 8 0 C8.33 0.99 8.66 1.98 9 3 C6.03 3 3.06 3 0 3 C0 2.01 0 1.02 0 0 Z " fill="#9C7FEC" transform="translate(146,67)"/>
<path d="M0 0 C0.66 0 1.32 0 2 0 C2 1.65 2 3.3 2 5 C2.99 5 3.98 5 5 5 C5 7.64 5 10.28 5 13 C4.34 12.67 3.68 12.34 3 12 C3.33 10.02 3.66 8.04 4 6 C3.34 6 2.68 6 2 6 C2 6.66 2 7.32 2 8 C1.34 8 0.68 8 0 8 C0 5.36 0 2.72 0 0 Z " fill="#D6CBF7" transform="translate(58,48)"/>
<path d="M0 0 C3.63 0 7.26 0 11 0 C11 0.99 11 1.98 11 3 C7.37 2.67 3.74 2.34 0 2 C0 1.34 0 0.68 0 0 Z " fill="#101225" transform="translate(76,47)"/>
<path d="M0 0 C0.33 0.66 0.66 1.32 1 2 C1.66 2 2.32 2 3 2 C3 1.34 3 0.68 3 0 C3.66 0 4.32 0 5 0 C4.67 1.65 4.34 3.3 4 5 C1.36 4.34 -1.28 3.68 -4 3 C-3 1 -3 1 0 0 Z " fill="#AA93F0" transform="translate(57,54)"/>
<path d="M0 0 C1.10844919 3.32534757 0.84454356 5.62182575 0 9 C-1.32 8.67 -2.64 8.34 -4 8 C-3.67 6.68 -3.34 5.36 -3 4 C-3 4.66 -3 5.32 -3 6 C-2.34 6 -1.68 6 -1 6 C-0.67 4.02 -0.34 2.04 0 0 Z " fill="#61646E" transform="translate(226,64)"/>
<path d="M0 0 C1.65 0 3.3 0 5 0 C5 1.32 5 2.64 5 4 C3.35 4 1.7 4 0 4 C0 2.68 0 1.36 0 0 Z " fill="#6939E5" transform="translate(148,60)"/>
<path d="M0 0 C0.33 0.66 0.66 1.32 1 2 C1.66 2 2.32 2 3 2 C3 3.65 3 5.3 3 7 C2.34 7 1.68 7 1 7 C1 7.66 1 8.32 1 9 C0.34 8.67 -0.32 8.34 -1 8 C-0.67 5.36 -0.34 2.72 0 0 Z " fill="#C7B8F3" transform="translate(154,48)"/>
<path d="M0 0 C0.33 0 0.66 0 1 0 C0.67 3.3 0.34 6.6 0 10 C-2 8 -2 8 -2.25 5.5625 C-2 3 -2 3 0 0 Z " fill="#7E57E8" transform="translate(35,70)"/>
</svg>
